<svg xmlns="http://www.w3.org/2000/svg" viewBox="0 0 374 169"><defs><style>.cls-1{fill:#fff;fill-rule:evenodd;}</style></defs><title>dexter--logo</title><g id="Ebene_2" data-name="Ebene 2"><g id="Ebene_1-2" data-name="Ebene 1"><path class="cls-1" d="M72,169q5-28.22,10.08-56.43c4.12-23.23,8.2-46.46,12.36-70.06h68.83c1.3,9,2.63,18.17,4.16,28.7C171,64.85,174.71,59.7,177,54c3.81-9.68,10-14,20.43-11.92,1.92.39,4-.07,6,.08,15.57,1.13,25.39-6.93,30.77-20.48C236.83,14.87,237.45,7.25,239,0h6c-2.15,13.87-4.31,27.75-6.55,42.19h19.46c-.74,4.48-1.59,8.37-2,12.3-.28,3-1.69,3.88-4.53,3.79-5.28-.17-10.57-.05-16-.05-3.55,20-7,39.38-10.45,58.8-3,17.32-6,34.65-8.94,52H193c.28-1.13.61-2.25.82-3.4q7.59-42.69,15.15-85.4c1.25-7.12,2.36-14.27,3.63-22-5.71,0-10.7-.28-15.63.15a8.18,8.18,0,0,0-5.44,3.06c-4.3,6.32-7.76,13.24-12.28,19.38-6.31,8.55-8.86,17.07-6.62,28.08,4,19.85,6.34,40,9.37,60.1H158q-2.56-19.6-5.12-39.21l-1.44-.33L130,169Zm25.41-16c7.3,0,13.63-.24,19.93.09,3.56.19,5.23-1.23,6.85-4.21,7.29-13.44,14.79-26.79,22.38-40.07,1.82-3.19,2.68-6.09,1.78-9.86-1.2-5-1.54-10.18-2.31-15.27-1.66-10.95-3.37-21.9-5.27-34.25-.93,3.82-1.51,6.18-2.17,8.87H114.22C112,70.86,109.8,83,107.49,96h21.37c-1,5.7-1.92,10.71-2.87,16H104.83C102.36,125.64,99.94,139,97.41,153Z"/><path class="cls-1" d="M296,169q8.53-48.12,17.06-96.23c1.77-10,3.5-20,5.5-31.37,11.82.8,23.81.72,35.45,2.68,9.2,1.54,15.09,8.59,18.43,17.39.45,1.2,1,2.35,1.56,3.53V80c-4,12.32-10.69,22.69-21.92,29.76-.72.45-1.12,2.43-.79,3.39,6.49,18.64,13.12,37.24,19.71,55.85H346l-18-49.29a104.8,104.8,0,0,0-3.63,15.91c-1.83,11.12-3.59,22.25-5.37,33.38Zm35.06-69.81c13,1.28,26.56-15.77,21.49-31.23C351,63.09,347.5,59.62,342.2,59c-1.25-.14-3.72,1.53-4,2.72C335.67,74.07,333.44,86.48,331.06,99.19Z"/><path class="cls-1" d="M0,165c2-10.59,4.16-21.15,6-31.76C11.2,104.1,16.24,75,21.35,45.8a32.23,32.23,0,0,1,1.06-3.54c8.66,0,17.36-.61,25.93.13,15.72,1.35,24.78,11.46,29.41,25.53,6.66,20.24,3.56,40.14-4.28,59.42-5.69,14-14.48,25.93-27.26,34.27-4.92,3.21-10.78,5-16.21,7.39H0Zm25.73-16.3c7.07-.36,11.55-3.64,15.39-8,10.81-12.2,15.5-26.9,16.93-42.79.82-9.19.34-18.35-4.28-26.69-2.64-4.77-6.14-8.66-13-8.33C35.82,91.37,30.83,119.73,25.73,148.7Z"/><path class="cls-1" d="M238,169c7.39-42.07,14.78-84.13,22.23-126.52h47c-.81,5.13-1.59,10.12-2.45,15.54H280.14c-2.27,12.5-4.48,24.64-6.84,37.6h21.3c-1,5.8-1.81,10.84-2.72,16.27-6,0-11.85-.16-17.64.11-1.41.06-3.78,1.31-4,2.36-2.49,12.68-4.66,25.42-7,38.65H297.2L294,169Z"/></g></g></svg>