<svg xmlns="http://www.w3.org/2000/svg" viewBox="0 0 66.15 318.22"><defs><style>.cls-1{fill:#ececec;}.cls-2{fill:#db1212;}</style></defs><title>pipette</title><g id="Ebene_2" data-name="Ebene 2"><g id="Ebene_2-2" data-name="Ebene 2"><polygon class="cls-1" points="37.94 294.73 28.55 294.73 12.9 276.58 53.58 276.58 37.94 294.73"/><rect class="cls-1" x="12.74" y="106.82" width="40.57" height="169.77"/><path d="M59.49,87.57c0,2.32-3.08,4.21-6.88,4.21H16c-3.79,0-6.87-1.88-6.87-4.2V4.2C9.09,1.88,12.17,0,16,0H52.62c3.8,0,6.88,1.89,6.88,4.21Z"/><path d="M3,110.48a3.11,3.11,0,0,1-3-3.26v-18A3.21,3.21,0,0,1,3,85.9H63a3.33,3.33,0,0,1,3.19,3.36v18A3.25,3.25,0,0,1,63,110.49Z"/><polygon class="cls-2" points="33.33 276.58 50.44 276.58 41.88 285.44 33.33 294.11 24.78 285.35 16.23 276.58 33.33 276.58"/><rect class="cls-1" x="28.74" y="292.6" width="9.61" height="25.62"/><rect class="cls-2" x="30.87" y="288.33" width="5.34" height="29.9"/></g></g></svg>