<svg xmlns="http://www.w3.org/2000/svg" viewBox="0 0 1328.1 640.99"><defs><style>.cls-1{fill:#7f8181;}.cls-2{fill:#c7c6c5;}.cls-3{fill:#fff;}.cls-4{fill:#dc1716;}.cls-5{fill:#000100;}.cls-6{fill:#ececec;}</style></defs><title>labor--table</title><g id="Ebene_2" data-name="Ebene 2"><g id="Ebene_1-2" data-name="Ebene 1"><rect class="cls-1" x="841.97" y="317.69" width="405.69" height="165.01"/><rect class="cls-2" y="479.01" width="1328.1" height="36.01"/><rect class="cls-2" x="863.22" y="334.6" width="365" height="127"/><path class="cls-3" d="M1191.86,405a13.14,13.14,0,1,1-13.14-13.15A13.14,13.14,0,0,1,1191.86,405Z"/><path class="cls-3" d="M1144.44,405a13.15,13.15,0,1,1-13.14-13.15A13.14,13.14,0,0,1,1144.44,405Z"/><path class="cls-3" d="M1083.62,366.27a11.49,11.49,0,1,1-11.49-11.49A11.5,11.5,0,0,1,1083.62,366.27Z"/><path class="cls-3" d="M1042.17,366.27a11.49,11.49,0,1,1-11.49-11.49A11.5,11.5,0,0,1,1042.17,366.27Z"/><path class="cls-3" d="M1138.26,445.6a8.66,8.66,0,1,1-8.66-8.65A8.66,8.66,0,0,1,1138.26,445.6Z"/><path class="cls-3" d="M947.67,370.35a7.63,7.63,0,1,1-7.63-7.63A7.63,7.63,0,0,1,947.67,370.35Z"/><path class="cls-3" d="M909.53,370.35a7.63,7.63,0,1,1-7.63-7.63A7.63,7.63,0,0,1,909.53,370.35Z"/><rect class="cls-4" x="1169.19" y="442.38" width="46.39" height="12.37"/><path class="cls-3" d="M947.67,404.37a7.63,7.63,0,1,1-7.63-7.63A7.63,7.63,0,0,1,947.67,404.37Z"/><path class="cls-3" d="M909.53,404.37a7.63,7.63,0,1,1-7.63-7.63A7.63,7.63,0,0,1,909.53,404.37Z"/><path class="cls-3" d="M947.67,438.39a7.63,7.63,0,1,1-7.63-7.63A7.63,7.63,0,0,1,947.67,438.39Z"/><path class="cls-3" d="M909.53,438.39a7.63,7.63,0,1,1-7.63-7.63A7.63,7.63,0,0,1,909.53,438.39Z"/><path class="cls-3" d="M1010.21,404.41a11.49,11.49,0,1,1-11.49-11.49A11.49,11.49,0,0,1,1010.21,404.41Z"/><rect class="cls-4" x="1018.7" y="439.83" width="11.34" height="12.37"/><rect class="cls-4" x="1036.74" y="439.83" width="11.34" height="12.37"/><rect class="cls-5" x="465.32" y="52.42" width="112.48" height="14.44"/><rect class="cls-5" x="606.67" width="97.55" height="13.14"/><rect class="cls-2" x="1.43" y="222.08" width="802.33" height="36.01"/><rect class="cls-6" x="460.22" y="103.6" width="123" height="118.49"/><polygon class="cls-6" points="583.16 97.14 460.23 97.14 477.82 67.14 565.58 67.14 583.16 97.14"/><rect class="cls-1" x="460.18" y="96.89" width="123.16" height="7.76"/><rect class="cls-6" x="607.22" y="47.6" width="97" height="174.49"/><polygon class="cls-6" points="704.17 44.34 607.25 44.34 621.12 13.34 690.3 13.34 704.17 44.34"/><rect class="cls-1" x="607.22" y="44.32" width="97" height="6.92"/><rect class="cls-5" x="481.09" y="141.16" width="88.14" height="38.66"/><rect class="cls-5" x="618.86" y="123.01" width="73.52" height="36.51"/><rect class="cls-5" x="710.64" y="345.34" width="87.85" height="11.27"/><rect class="cls-6" x="706.95" y="385.51" width="94.92" height="93.51"/><polygon class="cls-6" points="801.86 379.6 706.9 379.6 720.48 356.6 788.27 356.6 801.86 379.6"/><rect class="cls-1" x="706.91" y="379.52" width="94.92" height="6.06"/><rect class="cls-5" x="721.87" y="417.5" width="65.02" height="28.52"/><rect class="cls-3" x="11.24" y="512.09" width="1284.77" height="128.9"/><rect class="cls-3" x="11.24" y="512.09" width="1284.77" height="128.9"/></g></g></svg>