<svg xmlns="http://www.w3.org/2000/svg" viewBox="0 0 1229.11 305.48"><defs><style>.cls-1{fill:#000100;}.cls-2{fill:#fff;}</style></defs><title>stadt_1</title><g id="Ebene_2" data-name="Ebene 2"><g id="Stadt"><path class="cls-1" d="M630.3,83.38S607.56,72.19,594,103.68c0,0-11.71-27,25.29-30.21"/><path class="cls-1" d="M628.21,82.67s-25-21.81-47.83,1.24c0,0,6.13-30.06,41.84-14.75"/><path class="cls-1" d="M622.73,81s-6.68-32.52-38.79-28c0,0,23.1-20.18,42.22,13.64"/><path class="cls-1" d="M629.44,77.1s22.85-11,36.09,20.62c0,0,12-26.9-25-30.43"/><path class="cls-1" d="M631.54,76.42s25.22-21.6,47.82,1.65c0,0-5.87-30.11-41.71-15.12"/><path class="cls-1" d="M637,74.82s7-32.46,39-27.68c0,0-22.93-20.38-42.33,13.27"/><path class="cls-1" d="M634.47,59.31S630,55,636.39,28.16c0,0-22.33,10.05-9.8,46.61"/><path class="cls-1" d="M615.76,65.83s32.22,8,26.42,39.89c0,0,21.11-22.26-11.91-42.73"/><polygon class="cls-1" points="635.64 60.42 627.43 59.74 620.23 68.34 621.25 76.22 624.88 80.22 631.54 84.41 639.21 80.13 640.62 65.42 635.64 60.42"/><path class="cls-1" d="M592.86,221.45l9.06,2c1.23-26.69,8.82-53.53,19.1-78.19,6.58-22.32,14.33-42.78,11.51-65.61L625,78c-1.21,26.68-8.81,53.53-19.09,78.19-6.58,22.31-12.82,43.11-13,65.27Z"/><path class="cls-1" d="M1001.45,132.38s22.74-11.19,36.26,20.3c0,0,11.71-27-25.29-30.21"/><path class="cls-1" d="M1003.53,131.67s25-21.81,47.83,1.24c0,0-6.13-30.06-41.84-14.75"/><path class="cls-1" d="M1009,130s6.67-32.52,38.78-28c0,0-23.1-20.18-42.21,13.64"/><path class="cls-1" d="M1002.3,126.1s-22.84-11-36.09,20.62c0,0-12-26.9,25-30.43"/><path class="cls-1" d="M1000.2,125.42s-25.21-21.6-47.82,1.65c0,0,5.87-30.11,41.71-15.12"/><path class="cls-1" d="M994.7,123.82s-7-32.46-39-27.68c0,0,22.92-20.38,42.33,13.27"/><path class="cls-1" d="M997.27,108.31s4.49-4.34-1.92-31.15c0,0,22.34,10,9.8,46.61"/><path class="cls-1" d="M1016,114.83s-32.22,8-26.42,39.89c0,0-21.1-22.26,11.91-42.73"/><polygon class="cls-1" points="996.1 109.42 1004.32 108.74 1011.52 117.34 1010.49 125.22 1006.87 129.22 1000.2 133.41 992.54 129.13 991.13 114.42 996.1 109.42"/><path class="cls-1" d="M1038.88,270.45l-9.06,2c-1.22-26.69-8.82-53.53-19.09-78.19-6.59-22.32-14.34-42.78-11.52-65.61l7.55-1.69c1.22,26.68,8.81,53.53,19.09,78.19,6.58,22.31,12.83,43.11,13,65.27Z"/><path class="cls-1" d="M338.3,142.38s-22.74-11.19-36.27,20.3c0,0-11.71-27,25.29-30.21"/><path class="cls-1" d="M336.21,141.67s-25-21.81-47.83,1.24c0,0,6.13-30.06,41.84-14.75"/><path class="cls-1" d="M330.73,140s-6.68-32.52-38.79-28c0,0,23.1-20.18,42.22,13.64"/><path class="cls-1" d="M337.44,136.1s22.85-11,36.09,20.62c0,0,12-26.9-25-30.43"/><path class="cls-1" d="M339.54,135.42s25.22-21.6,47.82,1.65c0,0-5.87-30.11-41.71-15.12"/><path class="cls-1" d="M345,133.82s7-32.46,39-27.68c0,0-22.93-20.38-42.33,13.27"/><path class="cls-1" d="M342.47,118.31S338,114,344.39,87.16c0,0-22.33,10-9.8,46.61"/><path class="cls-1" d="M323.76,124.83s32.22,8,26.42,39.89c0,0,21.11-22.26-11.91-42.73"/><polygon class="cls-1" points="343.64 119.42 335.43 118.74 328.23 127.34 329.25 135.22 332.88 139.22 339.54 143.41 347.2 139.13 348.62 124.42 343.64 119.42"/><path class="cls-1" d="M300.86,303.45l9.06,2c1.23-26.69,8.82-77.53,19.1-102.19,6.58-22.32,14.33-42.78,11.51-65.61L333,136c-1.21,26.68-8.81,53.53-19.09,78.19-6.58,22.31-12.82,67.11-13,89.27Z"/><rect class="cls-2" x="88.91" y="95.29" width="218.26" height="207"/><rect class="cls-2" x="205.36" y="1.62" width="101.82" height="168.47"/><rect class="cls-2" x="414.91" y="95.29" width="71.15" height="207"/><rect class="cls-1" x="101.73" y="109.01" width="15.82" height="15.82"/><rect class="cls-1" x="101.73" y="139.67" width="15.82" height="15.82"/><rect class="cls-1" x="101.73" y="170.32" width="15.82" height="15.82"/><rect class="cls-1" x="101.73" y="200.98" width="15.82" height="15.82"/><rect class="cls-1" x="101.73" y="231.63" width="15.82" height="15.82"/><rect class="cls-1" x="101.73" y="262.29" width="15.82" height="15.82"/><rect class="cls-1" x="130.99" y="108.88" width="15.82" height="15.82"/><rect class="cls-1" x="130.99" y="139.54" width="15.82" height="15.82"/><rect class="cls-1" x="130.99" y="170.19" width="15.82" height="15.82"/><rect class="cls-1" x="130.99" y="200.85" width="15.82" height="15.82"/><rect class="cls-1" x="130.99" y="231.51" width="15.82" height="15.82"/><rect class="cls-1" x="130.99" y="262.16" width="15.82" height="15.82"/><rect class="cls-1" x="160.26" y="108.75" width="15.82" height="15.82"/><rect class="cls-1" x="160.26" y="139.41" width="15.82" height="15.82"/><rect class="cls-1" x="160.26" y="170.07" width="15.82" height="15.82"/><rect class="cls-1" x="160.26" y="200.72" width="15.82" height="15.82"/><rect class="cls-1" x="160.26" y="231.38" width="15.82" height="15.82"/><rect class="cls-1" x="160.26" y="262.04" width="15.82" height="15.82"/><rect class="cls-1" x="189.53" y="108.63" width="15.82" height="15.82"/><rect class="cls-1" x="189.53" y="139.28" width="15.82" height="15.82"/><rect class="cls-1" x="189.53" y="169.94" width="15.82" height="15.82"/><rect class="cls-1" x="189.53" y="200.6" width="15.82" height="15.82"/><rect class="cls-1" x="189.53" y="231.25" width="15.82" height="15.82"/><rect class="cls-1" x="189.53" y="261.91" width="15.82" height="15.82"/><rect class="cls-1" x="218.63" y="107.87" width="15.82" height="15.82"/><rect class="cls-1" x="218.63" y="138.52" width="15.82" height="15.82"/><rect class="cls-1" x="218.63" y="169.18" width="15.82" height="15.82"/><rect class="cls-1" x="218.63" y="199.84" width="15.82" height="15.82"/><rect class="cls-1" x="218.63" y="230.49" width="15.82" height="15.82"/><rect class="cls-1" x="218.63" y="261.15" width="15.82" height="15.82"/><rect class="cls-1" x="247.9" y="107.74" width="15.82" height="15.82"/><rect class="cls-1" x="247.9" y="138.4" width="15.82" height="15.82"/><rect class="cls-1" x="247.9" y="169.05" width="15.82" height="15.82"/><rect class="cls-1" x="247.9" y="199.71" width="15.82" height="15.82"/><rect class="cls-1" x="247.9" y="230.37" width="15.82" height="15.82"/><rect class="cls-1" x="247.9" y="261.02" width="15.82" height="15.82"/><rect class="cls-1" x="277.17" y="107.61" width="15.82" height="15.82"/><rect class="cls-1" x="277.17" y="138.27" width="15.82" height="15.82"/><rect class="cls-1" x="277.17" y="168.93" width="15.82" height="15.82"/><rect class="cls-1" x="277.17" y="199.58" width="15.82" height="15.82"/><rect class="cls-1" x="218.63" y="15.64" width="15.82" height="15.82"/><rect class="cls-1" x="218.63" y="46.3" width="15.82" height="15.82"/><rect class="cls-1" x="218.63" y="76.96" width="15.82" height="15.82"/><rect class="cls-1" x="247.9" y="15.52" width="15.82" height="15.82"/><rect class="cls-1" x="247.9" y="46.17" width="15.82" height="15.82"/><rect class="cls-1" x="247.9" y="76.83" width="15.82" height="15.82"/><rect class="cls-1" x="277.17" y="15.39" width="15.82" height="15.82"/><rect class="cls-1" x="277.17" y="46.05" width="15.82" height="15.82"/><rect class="cls-1" x="277.17" y="76.7" width="15.82" height="15.82"/><rect class="cls-1" x="277.17" y="230.24" width="15.82" height="15.82"/><rect class="cls-1" x="277.17" y="260.9" width="15.82" height="15.82"/><rect class="cls-2" x="502" y="94.38" width="101.82" height="206"/><rect class="cls-1" x="515.28" y="200.63" width="15.82" height="15.82"/><rect class="cls-1" x="515.28" y="231.29" width="15.82" height="15.82"/><rect class="cls-1" x="515.28" y="261.95" width="15.82" height="15.82"/><rect class="cls-1" x="544.55" y="200.51" width="15.82" height="15.82"/><rect class="cls-1" x="544.55" y="231.16" width="15.82" height="15.82"/><rect class="cls-1" x="544.55" y="261.82" width="15.82" height="15.82"/><rect class="cls-1" x="573.81" y="200.38" width="15.82" height="15.82"/><rect class="cls-1" x="573.81" y="231.04" width="15.82" height="15.82"/><rect class="cls-1" x="573.81" y="261.69" width="15.82" height="15.82"/><rect class="cls-1" x="515.28" y="108.41" width="15.82" height="15.82"/><rect class="cls-1" x="515.28" y="139.07" width="15.82" height="15.82"/><rect class="cls-1" x="515.28" y="169.72" width="15.82" height="15.82"/><rect class="cls-1" x="544.55" y="108.28" width="15.82" height="15.82"/><rect class="cls-1" x="544.55" y="138.94" width="15.82" height="15.82"/><rect class="cls-1" x="544.55" y="169.6" width="15.82" height="15.82"/><rect class="cls-1" x="573.81" y="108.16" width="15.82" height="15.82"/><rect class="cls-1" x="573.81" y="138.81" width="15.82" height="15.82"/><rect class="cls-1" x="573.81" y="169.47" width="15.82" height="15.82"/><rect class="cls-1" x="428.78" y="201.04" width="15.82" height="15.82"/><rect class="cls-1" x="428.78" y="231.7" width="15.82" height="15.82"/><rect class="cls-1" x="428.78" y="262.36" width="15.82" height="15.82"/><rect class="cls-1" x="458.05" y="200.91" width="15.82" height="15.82"/><rect class="cls-1" x="458.05" y="231.57" width="15.82" height="15.82"/><rect class="cls-1" x="458.05" y="262.23" width="15.82" height="15.82"/><rect class="cls-1" x="428.78" y="108.82" width="15.82" height="15.82"/><rect class="cls-1" x="428.78" y="139.47" width="15.82" height="15.82"/><rect class="cls-1" x="428.78" y="170.13" width="15.82" height="15.82"/><rect class="cls-1" x="458.05" y="108.69" width="15.82" height="15.82"/><rect class="cls-1" x="458.05" y="139.35" width="15.82" height="15.82"/><rect class="cls-1" x="458.05" y="170" width="15.82" height="15.82"/><rect class="cls-2" x="325.46" y="186.62" width="71.15" height="116.47"/><rect class="cls-1" x="339.33" y="201.83" width="15.82" height="15.82"/><rect class="cls-1" x="339.33" y="232.49" width="15.82" height="15.82"/><rect class="cls-1" x="339.33" y="263.14" width="15.82" height="15.82"/><rect class="cls-1" x="368.6" y="201.7" width="15.82" height="15.82"/><rect class="cls-1" x="368.6" y="232.36" width="15.82" height="15.82"/><rect class="cls-1" x="368.6" y="263.02" width="15.82" height="15.82"/><rect class="cls-2" y="186.62" width="71.15" height="116.47"/><rect class="cls-1" x="13.87" y="201.83" width="15.82" height="15.82"/><rect class="cls-1" x="13.87" y="232.49" width="15.82" height="15.82"/><rect class="cls-1" x="13.87" y="263.14" width="15.82" height="15.82"/><rect class="cls-1" x="43.14" y="201.7" width="15.82" height="15.82"/><rect class="cls-1" x="43.14" y="232.36" width="15.82" height="15.82"/><rect class="cls-1" x="43.14" y="263.02" width="15.82" height="15.82"/><rect class="cls-2" x="714.2" y="93.68" width="218.26" height="207"/><rect class="cls-2" x="830.65" width="101.82" height="168.47"/><rect class="cls-2" x="1040.2" y="93.68" width="71.15" height="207"/><rect class="cls-1" x="727.02" y="107.39" width="15.82" height="15.82"/><rect class="cls-1" x="727.02" y="138.05" width="15.82" height="15.82"/><rect class="cls-1" x="727.02" y="168.7" width="15.82" height="15.82"/><rect class="cls-1" x="727.02" y="199.36" width="15.82" height="15.82"/><rect class="cls-1" x="727.02" y="230.02" width="15.82" height="15.82"/><rect class="cls-1" x="727.02" y="260.67" width="15.82" height="15.82"/><rect class="cls-1" x="756.29" y="107.26" width="15.82" height="15.82"/><rect class="cls-1" x="756.29" y="137.92" width="15.82" height="15.82"/><rect class="cls-1" x="756.29" y="168.58" width="15.82" height="15.82"/><rect class="cls-1" x="756.29" y="199.23" width="15.82" height="15.82"/><rect class="cls-1" x="756.29" y="229.89" width="15.82" height="15.82"/><rect class="cls-1" x="756.29" y="260.55" width="15.82" height="15.82"/><rect class="cls-1" x="785.56" y="107.14" width="15.82" height="15.82"/><rect class="cls-1" x="785.56" y="137.79" width="15.82" height="15.82"/><rect class="cls-1" x="785.56" y="168.45" width="15.82" height="15.82"/><rect class="cls-1" x="785.56" y="199.11" width="15.82" height="15.82"/><rect class="cls-1" x="785.56" y="229.76" width="15.82" height="15.82"/><rect class="cls-1" x="785.56" y="260.42" width="15.82" height="15.82"/><rect class="cls-1" x="814.83" y="107.01" width="15.82" height="15.82"/><rect class="cls-1" x="814.83" y="137.67" width="15.82" height="15.82"/><rect class="cls-1" x="814.83" y="168.32" width="15.82" height="15.82"/><rect class="cls-1" x="814.83" y="198.98" width="15.82" height="15.82"/><rect class="cls-1" x="814.83" y="229.64" width="15.82" height="15.82"/><rect class="cls-1" x="814.83" y="260.29" width="15.82" height="15.82"/><rect class="cls-1" x="843.93" y="106.25" width="15.82" height="15.82"/><rect class="cls-1" x="843.93" y="136.91" width="15.82" height="15.82"/><rect class="cls-1" x="843.93" y="167.56" width="15.82" height="15.82"/><rect class="cls-1" x="843.93" y="198.22" width="15.82" height="15.82"/><rect class="cls-1" x="843.93" y="228.88" width="15.82" height="15.82"/><rect class="cls-1" x="843.93" y="259.53" width="15.82" height="15.82"/><rect class="cls-1" x="873.2" y="106.12" width="15.82" height="15.82"/><rect class="cls-1" x="873.2" y="136.78" width="15.82" height="15.82"/><rect class="cls-1" x="873.2" y="167.44" width="15.82" height="15.82"/><rect class="cls-1" x="873.2" y="198.09" width="15.82" height="15.82"/><rect class="cls-1" x="873.2" y="228.75" width="15.82" height="15.82"/><rect class="cls-1" x="873.2" y="259.41" width="15.82" height="15.82"/><rect class="cls-1" x="902.47" y="106" width="15.82" height="15.82"/><rect class="cls-1" x="902.47" y="136.65" width="15.82" height="15.82"/><rect class="cls-1" x="902.47" y="167.31" width="15.82" height="15.82"/><rect class="cls-1" x="902.47" y="197.97" width="15.82" height="15.82"/><rect class="cls-1" x="843.93" y="14.03" width="15.82" height="15.82"/><rect class="cls-1" x="843.93" y="44.68" width="15.82" height="15.82"/><rect class="cls-1" x="843.93" y="75.34" width="15.82" height="15.82"/><rect class="cls-1" x="873.2" y="13.9" width="15.82" height="15.82"/><rect class="cls-1" x="873.2" y="44.56" width="15.82" height="15.82"/><rect class="cls-1" x="873.2" y="75.21" width="15.82" height="15.82"/><rect class="cls-1" x="902.47" y="13.77" width="15.82" height="15.82"/><rect class="cls-1" x="902.47" y="44.43" width="15.82" height="15.82"/><rect class="cls-1" x="902.47" y="75.08" width="15.82" height="15.82"/><rect class="cls-1" x="902.47" y="228.62" width="15.82" height="15.82"/><rect class="cls-1" x="902.47" y="259.28" width="15.82" height="15.82"/><rect class="cls-2" x="1127.3" y="92.77" width="101.82" height="206"/><rect class="cls-1" x="1140.58" y="199.02" width="15.82" height="15.82"/><rect class="cls-1" x="1140.58" y="229.67" width="15.82" height="15.82"/><rect class="cls-1" x="1140.58" y="260.33" width="15.82" height="15.82"/><rect class="cls-1" x="1169.84" y="198.89" width="15.82" height="15.82"/><rect class="cls-1" x="1169.84" y="229.55" width="15.82" height="15.82"/><rect class="cls-1" x="1169.84" y="260.2" width="15.82" height="15.82"/><rect class="cls-1" x="1199.11" y="198.76" width="15.82" height="15.82"/><rect class="cls-1" x="1199.11" y="229.42" width="15.82" height="15.82"/><rect class="cls-1" x="1199.11" y="260.08" width="15.82" height="15.82"/><rect class="cls-1" x="1140.58" y="106.79" width="15.82" height="15.82"/><rect class="cls-1" x="1140.58" y="137.45" width="15.82" height="15.82"/><rect class="cls-1" x="1140.58" y="168.11" width="15.82" height="15.82"/><rect class="cls-1" x="1169.84" y="106.67" width="15.82" height="15.82"/><rect class="cls-1" x="1169.84" y="137.32" width="15.82" height="15.82"/><rect class="cls-1" x="1169.84" y="167.98" width="15.82" height="15.82"/><rect class="cls-1" x="1199.11" y="106.54" width="15.82" height="15.82"/><rect class="cls-1" x="1199.11" y="137.19" width="15.82" height="15.82"/><rect class="cls-1" x="1199.11" y="167.85" width="15.82" height="15.82"/><rect class="cls-1" x="1054.08" y="199.42" width="15.82" height="15.82"/><rect class="cls-1" x="1054.08" y="230.08" width="15.82" height="15.82"/><rect class="cls-1" x="1054.08" y="260.74" width="15.82" height="15.82"/><rect class="cls-1" x="1083.34" y="199.3" width="15.82" height="15.82"/><rect class="cls-1" x="1083.34" y="229.95" width="15.82" height="15.82"/><rect class="cls-1" x="1083.34" y="260.61" width="15.82" height="15.82"/><rect class="cls-1" x="1054.08" y="107.2" width="15.82" height="15.82"/><rect class="cls-1" x="1054.08" y="137.86" width="15.82" height="15.82"/><rect class="cls-1" x="1054.08" y="168.51" width="15.82" height="15.82"/><rect class="cls-1" x="1083.34" y="107.07" width="15.82" height="15.82"/><rect class="cls-1" x="1083.34" y="137.73" width="15.82" height="15.82"/><rect class="cls-1" x="1083.34" y="168.39" width="15.82" height="15.82"/><rect class="cls-2" x="950.76" y="185" width="71.15" height="116.47"/><rect class="cls-1" x="964.63" y="200.21" width="15.82" height="15.82"/><rect class="cls-1" x="964.63" y="230.87" width="15.82" height="15.82"/><rect class="cls-1" x="964.63" y="261.53" width="15.82" height="15.82"/><rect class="cls-1" x="993.9" y="200.09" width="15.82" height="15.82"/><rect class="cls-1" x="993.9" y="230.74" width="15.82" height="15.82"/><rect class="cls-1" x="993.9" y="261.4" width="15.82" height="15.82"/><rect class="cls-2" x="625.3" y="185" width="71.15" height="116.47"/><rect class="cls-1" x="639.17" y="200.21" width="15.82" height="15.82"/><rect class="cls-1" x="639.17" y="230.87" width="15.82" height="15.82"/><rect class="cls-1" x="639.17" y="261.53" width="15.82" height="15.82"/><rect class="cls-1" x="668.44" y="200.09" width="15.82" height="15.82"/><rect class="cls-1" x="668.44" y="230.74" width="15.82" height="15.82"/><rect class="cls-1" x="668.44" y="261.4" width="15.82" height="15.82"/></g></g></svg>