<svg xmlns="http://www.w3.org/2000/svg" viewBox="0 0 1340.6 88.61"><defs><style>.cls-1{fill:#e09098;stroke:#fff;stroke-miterlimit:10;stroke-width:5.72px;}</style></defs><title>welle--niedrig</title><g id="Ebene_2" data-name="Ebene 2"><g id="Welle_1"><path class="cls-1" d="M1335.79,3.08c-23.78,0-23.71,6.82-47.49,6.82s-23.74-7-47.53-7S1217,9.82,1193.24,9.82s-23.77-6.95-47.55-6.95-23.77,6.93-47.55,6.93-23.77-6.94-47.55-6.94S1026.82,9.79,1003,9.79,979.27,2.86,955.5,2.86,931.73,9.79,908,9.79s-23.78-6.93-47.55-6.93-23.78,6.93-47.55,6.93-23.78-6.93-47.55-6.93-23.77,6.93-47.55,6.93S694,2.86,670.21,2.86s-23.77,6.93-47.54,6.93-23.78-6.93-47.56-6.93-23.77,6.93-47.54,6.93S503.8,2.86,480,2.86s-23.77,6.93-47.54,6.93-23.77-6.93-47.54-6.93S361.17,9.79,337.4,9.79s-23.78-6.93-47.55-6.93S266.07,9.79,242.3,9.79s-23.77-6.93-47.54-6.93S171,9.79,147.22,9.79,123.45,2.86,99.68,2.86,75,9.79,51.27,9.79,27.22,2.86,2.86,2.86V85.75H1337.68Z"/></g></g></svg>